<svg width="1080" height="1920" viewBox="0 0 1080 1920" fill="none" xmlns="http://www.w3.org/2000/svg">
  <defs>
    <linearGradient id="bg" x1="0" y1="0" x2="1080" y2="1920" gradientUnits="userSpaceOnUse">
      <stop stop-color="#080D1F"/>
      <stop offset="1" stop-color="#0B132A"/>
    </linearGradient>
    <filter id="shadow" x="-20%" y="-20%" width="140%" height="140%">
      <feDropShadow dx="0" dy="26" stdDeviation="24" flood-color="#000000" flood-opacity="0.35"/>
    </filter>
  </defs>
  <rect width="1080" height="1920" fill="url(#bg)"/>
  <rect x="95" y="22" width="890" height="1876" rx="2" fill="#FDFDFB" filter="url(#shadow)"/>
  <g transform="translate(0 0) rotate(-18 180 280)">
    <rect x="0" y="110" width="390" height="280" rx="2" fill="#D6DED8"/>
    <circle cx="96" cy="175" r="62" fill="#4E5A42"/>
    <circle cx="120" cy="200" r="52" fill="#C82E2E"/>
    <circle cx="150" cy="220" r="44" fill="#F7A11F"/>
    <rect x="24" y="140" width="130" height="120" rx="22" fill="#E9DCC9"/>
    <circle cx="320" cy="150" r="52" fill="#B58F5F"/>
    <circle cx="330" cy="160" r="18" fill="#EFD7B2"/>
  </g>
  <g>
    <rect x="240" y="90" width="600" height="850" rx="2" fill="#17202F"/>
    <rect x="280" y="130" width="520" height="760" rx="2" fill="#2A2832"/>
    <rect x="286" y="136" width="508" height="748" rx="2" fill="#9A7A6C"/>
    <circle cx="540" cy="430" r="180" fill="#D1A38B"/>
    <circle cx="480" cy="400" r="34" fill="#1E1718"/>
    <circle cx="600" cy="400" r="34" fill="#1E1718"/>
    <path d="M450 520C490 565 596 565 640 520" stroke="#8C3D3D" stroke-width="16" stroke-linecap="round"/>
    <path d="M395 250C455 190 615 190 685 250" stroke="#E6E2D8" stroke-width="80" stroke-linecap="round" opacity="0.36"/>
    <path d="M395 640C455 700 615 700 685 640" stroke="#E6E2D8" stroke-width="80" stroke-linecap="round" opacity="0.36"/>
  </g>
  <g transform="translate(165 560) rotate(-11 360 240)">
    <rect x="0" y="0" width="720" height="480" rx="2" fill="#E8E0D1"/>
    <circle cx="130" cy="110" r="64" fill="#C6D2A9"/>
    <circle cx="320" cy="200" r="124" fill="#D9A35D"/>
    <circle cx="540" cy="110" r="48" fill="#6E8F4D"/>
    <circle cx="300" cy="210" r="56" fill="#EBE3D0"/>
    <path d="M215 160C250 190 350 210 425 198" stroke="#F6B235" stroke-width="16" stroke-linecap="round"/>
  </g>
  <path d="M285 735C375 670 470 665 570 690" stroke="#F6C93A" stroke-width="12" stroke-linecap="round"/>
  <path d="M555 693L605 717" stroke="#F6C93A" stroke-width="12" stroke-linecap="round"/>
  <path d="M555 693L594 655" stroke="#F6C93A" stroke-width="12" stroke-linecap="round"/>
  <text x="540" y="725" transform="rotate(-8 540 725)" font-family="Segoe Script, Brush Script MT, cursive" font-size="48" font-weight="700" fill="#0B0B0B">delicious</text>
  <text x="655" y="275" transform="rotate(-3 655 275)" font-family="Segoe Script, Brush Script MT, cursive" font-size="78" font-weight="700" fill="#FFF7D2" stroke="#E7CF78" stroke-width="2">camera</text>
  <text x="160" y="660" transform="rotate(-16 160 660)" font-family="Segoe Script, Brush Script MT, cursive" font-size="70" font-weight="700" fill="#FFF7D2" stroke="#E7CF78" stroke-width="2">eats first</text>
  <g transform="translate(130 1180)">
    <rect x="0" y="0" width="820" height="620" fill="#F0E7D8"/>
    <rect x="0" y="390" width="820" height="230" fill="#DCE8D6"/>
    <rect x="0" y="390" width="170" height="230" fill="#E7B0A7"/>
    <rect x="170" y="390" width="170" height="230" fill="#A9C26C"/>
    <rect x="340" y="390" width="170" height="230" fill="#F4C54D"/>
    <rect x="510" y="390" width="170" height="230" fill="#EE8A6D"/>
    <rect x="680" y="390" width="140" height="230" fill="#8FD27E"/>
    <circle cx="110" cy="470" r="52" fill="#C54C2C"/>
    <circle cx="250" cy="480" r="58" fill="#5A6B2A"/>
    <circle cx="410" cy="470" r="56" fill="#C89D3A"/>
    <circle cx="580" cy="480" r="54" fill="#8A2F1F"/>
    <circle cx="720" cy="470" r="60" fill="#A86E47"/>
  </g>
  <g transform="translate(170 1440) rotate(5 220 160)">
    <rect x="0" y="0" width="300" height="300" fill="#E7D7B9"/>
    <circle cx="110" cy="130" r="82" fill="#CBA981"/>
    <circle cx="184" cy="116" r="42" fill="#9D4D2D"/>
    <circle cx="210" cy="192" r="34" fill="#A8C659"/>
  </g>
  <g transform="translate(650 1450) rotate(7 180 120)">
    <rect x="0" y="0" width="300" height="220" fill="#E7D7B9"/>
    <circle cx="90" cy="92" r="80" fill="#A1BE5A"/>
    <circle cx="186" cy="84" r="40" fill="#F49D2F"/>
  </g>
</svg>
